<svg xmlns="http://www.w3.org/2000/svg" viewBox="0 0 187.64 187.64"><defs><style>.cls-1{fill:#f7931e;}</style></defs><g id="Capa_2" data-name="Capa 2"><g id="Capa_1-2" data-name="Capa 1"><path class="cls-1" d="M93.82,0a93.82,93.82,0,1,0,93.82,93.82A93.81,93.81,0,0,0,93.82,0Zm35.85,106c-7.35,0-14.7,0-22,0-1.33,0-1.69.32-1.68,1.67.07,7.66.1,15.33,0,23A12.14,12.14,0,0,1,82.23,134a14.21,14.21,0,0,1-.58-4.3c0-7.35,0-14.7,0-22,0-1.33-.33-1.68-1.67-1.67-7.66.07-15.33.1-23,0a12.14,12.14,0,0,1,0-24.27c3.8-.08,7.6,0,11.41,0h0c3.86,0,7.72-.06,11.59,0,1.33,0,1.68-.33,1.67-1.67-.07-7.34,0-14.69,0-22s5.21-12.81,12.15-12.81S106,50.62,106,58s0,14.7,0,22c0,1.33.32,1.69,1.66,1.68,7.35-.07,14.7,0,22,0s12.81,5.2,12.81,12.15S137,106,129.67,106Z"/></g></g></svg>